<svg id="visual" viewBox="0 0 540 960" width="540" height="960" xmlns="http://www.w3.org/2000/svg" xmlns:xlink="http://www.w3.org/1999/xlink" version="1.1"><rect x="0" y="0" width="540" height="960" fill="#cfcfcf"></rect><defs><linearGradient id="grad1_0" x1="0%" y1="0%" x2="100%" y2="100%"><stop offset="30%" stop-color="#cfcfcf" stop-opacity="1"></stop><stop offset="70%" stop-color="#cfcfcf" stop-opacity="1"></stop></linearGradient></defs><defs><linearGradient id="grad2_0" x1="0%" y1="0%" x2="100%" y2="100%"><stop offset="30%" stop-color="#cfcfcf" stop-opacity="1"></stop><stop offset="70%" stop-color="#cfcfcf" stop-opacity="1"></stop></linearGradient></defs><g transform="translate(540, 0)"><path d="M0 540C-93.8 525.5 -187.5 511 -270 467.7C-352.5 424.3 -423.7 352.2 -466.8 269.5C-509.9 186.8 -525 93.4 -540 0L0 0Z" fill="#ffffff"></path></g><g transform="translate(0, 960)"><path d="M0 -540C94.1 -525.7 188.2 -511.4 270 -467.7C351.8 -423.9 421.2 -350.8 464.2 -268C507.1 -185.2 523.6 -92.6 540 0L0 0Z" fill="#ffffff"></path></g></svg>