<svg id="visual" viewBox="0 0 540 960" width="540" height="960" xmlns="http://www.w3.org/2000/svg" xmlns:xlink="http://www.w3.org/1999/xlink" version="1.1"><rect x="0" y="0" width="540" height="960" fill="#cfcfcf"></rect><defs><linearGradient id="grad1_0" x1="0%" y1="100%" x2="100%" y2="0%"><stop offset="30%" stop-color="#cfcfcf" stop-opacity="1"></stop><stop offset="70%" stop-color="#cfcfcf" stop-opacity="1"></stop></linearGradient></defs><defs><linearGradient id="grad2_0" x1="0%" y1="100%" x2="100%" y2="0%"><stop offset="30%" stop-color="#cfcfcf" stop-opacity="1"></stop><stop offset="70%" stop-color="#cfcfcf" stop-opacity="1"></stop></linearGradient></defs><g transform="translate(540, 960)"><path d="M-540 0C-525.5 -93.8 -511 -187.5 -467.7 -270C-424.3 -352.5 -352.2 -423.7 -269.5 -466.8C-186.8 -509.9 -93.4 -525 0 -540L0 0Z" fill="#ffffff"></path></g><g transform="translate(0, 0)"><path d="M540 0C525.7 94.1 511.4 188.2 467.7 270C423.9 351.8 350.8 421.2 268 464.2C185.2 507.1 92.6 523.6 0 540L0 0Z" fill="#ffffff"></path></g></svg>