<svg id="visual" viewBox="0 0 900 600" width="900" height="600" xmlns="http://www.w3.org/2000/svg" xmlns:xlink="http://www.w3.org/1999/xlink" version="1.1"><rect x="0" y="0" width="900" height="600" fill="#ffffff"></rect><path d="M0 113L16.7 131.3C33.3 149.7 66.7 186.3 100 184.7C133.3 183 166.7 143 200 143.3C233.3 143.7 266.7 184.3 300 207C333.3 229.7 366.7 234.3 400 218.5C433.3 202.7 466.7 166.3 500 162C533.3 157.7 566.7 185.3 600 178.3C633.3 171.3 666.7 129.7 700 126.2C733.3 122.7 766.7 157.3 800 174C833.3 190.7 866.7 189.3 883.3 188.7L900 188L900 601L883.3 601C866.7 601 833.3 601 800 601C766.7 601 733.3 601 700 601C666.7 601 633.3 601 600 601C566.7 601 533.3 601 500 601C466.7 601 433.3 601 400 601C366.7 601 333.3 601 300 601C266.7 601 233.3 601 200 601C166.7 601 133.3 601 100 601C66.7 601 33.3 601 16.7 601L0 601Z" fill="#414040"></path><path d="M0 299L16.7 288.7C33.3 278.3 66.7 257.7 100 244.3C133.3 231 166.7 225 200 236.3C233.3 247.7 266.7 276.3 300 292.2C333.3 308 366.7 311 400 310C433.3 309 466.7 304 500 279.5C533.3 255 566.7 211 600 217.7C633.3 224.3 666.7 281.7 700 308C733.3 334.3 766.7 329.7 800 321.7C833.3 313.7 866.7 302.3 883.3 296.7L900 291L900 601L883.3 601C866.7 601 833.3 601 800 601C766.7 601 733.3 601 700 601C666.7 601 633.3 601 600 601C566.7 601 533.3 601 500 601C466.7 601 433.3 601 400 601C366.7 601 333.3 601 300 601C266.7 601 233.3 601 200 601C166.7 601 133.3 601 100 601C66.7 601 33.3 601 16.7 601L0 601Z" fill="#393838"></path><path d="M0 347L16.7 339.7C33.3 332.3 66.7 317.7 100 324C133.3 330.3 166.7 357.7 200 373.7C233.3 389.7 266.7 394.3 300 385.3C333.3 376.3 366.7 353.7 400 341.5C433.3 329.3 466.7 327.7 500 315.2C533.3 302.7 566.7 279.3 600 280.2C633.3 281 666.7 306 700 311.5C733.3 317 766.7 303 800 313.5C833.3 324 866.7 359 883.3 376.5L900 394L900 601L883.3 601C866.7 601 833.3 601 800 601C766.7 601 733.3 601 700 601C666.7 601 633.3 601 600 601C566.7 601 533.3 601 500 601C466.7 601 433.3 601 400 601C366.7 601 333.3 601 300 601C266.7 601 233.3 601 200 601C166.7 601 133.3 601 100 601C66.7 601 33.3 601 16.7 601L0 601Z" fill="#313030"></path><path d="M0 374L16.7 377C33.3 380 66.7 386 100 388.7C133.3 391.3 166.7 390.7 200 400.3C233.3 410 266.7 430 300 432.5C333.3 435 366.7 420 400 399C433.3 378 466.7 351 500 357C533.3 363 566.7 402 600 410.2C633.3 418.3 666.7 395.7 700 390.5C733.3 385.3 766.7 397.7 800 400.5C833.3 403.3 866.7 396.7 883.3 393.3L900 390L900 601L883.3 601C866.7 601 833.3 601 800 601C766.7 601 733.3 601 700 601C666.7 601 633.3 601 600 601C566.7 601 533.3 601 500 601C466.7 601 433.3 601 400 601C366.7 601 333.3 601 300 601C266.7 601 233.3 601 200 601C166.7 601 133.3 601 100 601C66.7 601 33.3 601 16.7 601L0 601Z" fill="#292828"></path><path d="M0 517L16.7 498C33.3 479 66.7 441 100 432.5C133.3 424 166.7 445 200 450.5C233.3 456 266.7 446 300 448.8C333.3 451.7 366.7 467.3 400 466.8C433.3 466.3 466.7 449.7 500 447.5C533.3 445.3 566.7 457.7 600 460.5C633.3 463.3 666.7 456.7 700 448C733.3 439.3 766.7 428.7 800 439.8C833.3 451 866.7 484 883.3 500.5L900 517L900 601L883.3 601C866.7 601 833.3 601 800 601C766.7 601 733.3 601 700 601C666.7 601 633.3 601 600 601C566.7 601 533.3 601 500 601C466.7 601 433.3 601 400 601C366.7 601 333.3 601 300 601C266.7 601 233.3 601 200 601C166.7 601 133.3 601 100 601C66.7 601 33.3 601 16.7 601L0 601Z" fill="#222021"></path><path d="M0 492L16.7 499.5C33.3 507 66.7 522 100 517.8C133.3 513.7 166.7 490.3 200 493.2C233.3 496 266.7 525 300 529.7C333.3 534.3 366.7 514.7 400 504.3C433.3 494 466.7 493 500 490.3C533.3 487.7 566.7 483.3 600 481.8C633.3 480.3 666.7 481.7 700 492.2C733.3 502.7 766.7 522.3 800 522.2C833.3 522 866.7 502 883.3 492L900 482L900 601L883.3 601C866.7 601 833.3 601 800 601C766.7 601 733.3 601 700 601C666.7 601 633.3 601 600 601C566.7 601 533.3 601 500 601C466.7 601 433.3 601 400 601C366.7 601 333.3 601 300 601C266.7 601 233.3 601 200 601C166.7 601 133.3 601 100 601C66.7 601 33.3 601 16.7 601L0 601Z" fill="#1a191a"></path></svg>